# xmcd
#
# Track frame offsets:
#	150
#	19010
#	32840
#	42207
#	54816
#	70535
#	93737
#	111164
#	131921
#	147818
#	161355
#	174235
#	184744
#	217106
#
# Disc length: 3100
#
# Revision: 2
# Processed by: cddbd v1.5.1PL0 Copyright (c) Steve Scherf et al.
# Submitted via: CDex 1.51
# Normalized: r1:TRMNUM
#
DISCID=bc0c1a0e
DTITLE=The Beatles - The Beatles 1967-1970 [CD1]
DYEAR=1900
DGENRE=Rock
TTITLE0=Strawberry Fields Forever
TTITLE1=Penny Lane
TTITLE2=Sgt. Pepper's Lonely Hearts Club Band
TTITLE3=With A Little Help From My Friends
TTITLE4=Lucy In The Sky With Diamonds
TTITLE5=A Day In The Life
TTITLE6=All You Need Is Love
TTITLE7=I Am The Walrus
TTITLE8=Hello, Goodbye
TTITLE9=The Fool On The Hill
TTITLE10=Magical Mystery Tour
TTITLE11=Lady Madonna
TTITLE12=Hey Jude
TTITLE13=Revolution
EXTD=
EXTT0=
EXTT1=
EXTT2=
EXTT3=
EXTT4=
EXTT5=
EXTT6=
EXTT7=
EXTT8=
EXTT9=
EXTT10=
EXTT11=
EXTT12=
EXTT13=
PLAYORDER=
